<svg xmlns="http://www.w3.org/2000/svg" xmlns:xlink="http://www.w3.org/1999/xlink" version="1.1" x="0px" y="0px"
    viewBox="0 0 334.104 486.131" enable-background="new 0 0 334.104 486.131" xml:space="preserve"
    style="fill: rgb(0, 0, 0);" role="img" aria-label="Yellow Bulb Vector">
    <g id="__id299_stxkicwhmh">
        <path
            d="M284.22,122.867c-23.201-57.229-83.907-73.556-86.479-74.224c-8.022-2.081-16.229,2.729-18.31,10.75   c-2.078,8.021,2.714,16.199,10.732,18.278c0.485,0.129,48.814,13.447,66.254,56.467c2.364,5.831,7.979,9.368,13.906,9.368   c1.877,0,3.785-0.354,5.631-1.104C283.632,139.293,287.333,130.545,284.22,122.867z"
            style="fill: rgb(2, 3, 1);"></path>
        <path
            d="M334.104,162.969C334.104,73.108,259.165,0,167.052,0C74.939,0,0,73.107,0,162.969   c0,43.236,19.436,72.842,38.229,101.472c19.438,29.606,37.797,57.573,37.797,102.179v28.604c0,16.933,6.675,32.798,18.798,44.685   l27.887,27.887c12.226,12.228,28.28,18.339,44.341,18.337c16.058-0.001,32.118-6.113,44.342-18.337l27.889-27.888   c12.123-11.888,18.797-27.752,18.797-44.684v-16.004c0-10.409,1.957-34.377,2.346-39.035c5.576-30.655,20.186-52.93,35.655-76.493   C314.773,235.215,334.104,205.773,334.104,162.969z M106.027,395.223v-28.604c0-4.644-0.17-9.142-0.495-13.509h123.811   c-0.25,3.564-0.502,7.384-0.713,11.107h-61.576c-8.285,0-15,6.716-15,15c0,8.283,6.715,15,15,15h61.025v1.004   c0,4.658-0.982,9.161-2.838,13.291c-0.206-0.01-0.409-0.031-0.617-0.031H109.483c-0.209,0-0.412,0.021-0.618,0.031   C107.011,404.383,106.027,399.881,106.027,395.223z M189.979,227.537c-0.018,0.96-0.434,15.581-8.938,34.098   c-4.183,9.104-9.526,17.586-16.006,25.416c-26.083-29.311-23.892-55-23.618-57.401l0.157-0.859v-1.323   c0-13.346,10.856-24.203,24.203-24.203c13.346,0,24.203,10.857,24.203,24.203l-0.003-0.039L189.979,227.537z M143.925,446.58   l-8.099-8.099h62.454l-8.1,8.099C177.429,459.332,156.679,459.332,143.925,446.58z M233.472,323.11H212.54   c-0.143-0.083-0.273-0.177-0.421-0.256c-9.463-5.121-17.665-10.371-24.78-15.65c32.109-38.021,32.65-76.745,32.642-79.772   c-0.019-29.873-24.326-54.169-54.203-54.169c-29.581,0-53.704,23.817-54.195,53.284c-0.759,7.508-2.282,43.448,31.726,81.2   c-7.19,5.468-15.152,10.466-23.87,14.979c-0.229,0.117-0.438,0.256-0.657,0.384h-18.2c-7.936-30.449-23.257-53.789-37.27-75.134   c-17.873-27.227-33.31-50.738-33.31-85.008C30.001,89.65,91.482,30,167.054,30c75.57,0,137.051,59.649,137.051,132.969   c0,33.836-15.34,57.201-33.104,84.257C257.042,268.488,241.433,292.263,233.472,323.11z"
            style="fill: rgb(2, 3, 1);"></path>
    </g>
</svg>